<svg id="Capa_1" data-name="Capa 1" xmlns="http://www.w3.org/2000/svg" xmlns:xlink="http://www.w3.org/1999/xlink" viewBox="0 0 193.89 170.51"><defs><style>.cls-1{fill:none;}.cls-2{clip-path:url(#clip-path);}.cls-3{fill:#015da6;}</style><clipPath id="clip-path" transform="translate(-73.28 -306.1)"><rect class="cls-1" x="22.71" y="266.94" width="569.29" height="256.91"/></clipPath></defs><title>slide_4</title><g id="slide_4.psd"><g class="cls-2"><path class="cls-3" d="M221.45,376.82a5.11,5.11,0,0,1,1.6,3.19c0,.23-.46.66-.79.81-2.46,1.13-2.42,1.11-2.43,3.77,0,11.28-.06,22.57-.09,33.85,0,1.33-.07,2.66,0,4a2.46,2.46,0,0,1-1.4,2.41c-.23.15-.51.22-.75.35-2.47,1.43-5,2.81-7.39,4.31-3.31,2-6.54,4.19-9.84,6.24-1.51.94-3.09,1.77-4.65,2.63-2.38,1.33-4.77,2.63-7.14,4a11.09,11.09,0,0,0-1,.93c-2.39,1.8-3.84,1.73-6.34-.12-1.92-1.42-3.93-2.72-5.9-4.08s-3.89-2.74-5.87-4.06-4.15-2.73-6.27-4c-3.67-2.25-7.37-4.44-11.05-6.67-.71-.42-1.52-.68-1.43-1.85,0-.47-.54-1.1-1-1.47a24.82,24.82,0,0,0-2.55-1.73c-2.92-1.88-5.87-3.72-8.78-5.62-4-2.64-8.11-5.27-12.08-8a3.33,3.33,0,0,1-1.29-2.33c-.11-10.62-.11-21.24-.13-31.86a6.67,6.67,0,0,1,.19-1c1.35.72,2.63,1.3,3.8,2,2.34,1.47,4.61,3,6.93,4.53q4.62,2.94,9.28,5.82c2.08,1.29,4.18,2.56,6.31,3.77a1.76,1.76,0,0,1,1.07,1.77q-.06,15.43-.06,30.86a15.61,15.61,0,0,0,.4,2.34c-.81,1.24-.76,1.13,1,2a39.89,39.89,0,0,1,4.05,2.51c1.95,1.21,3.9,2.41,5.85,3.64q6.3,4,12.58,7.94c1.59,1,3.2,2,5,3.12a7.15,7.15,0,0,0,.46-1.61q-.08-17.13-.22-34.26a1.69,1.69,0,0,0-.68-1.17c-1.65-1.08-3.36-2-5-3.08-2.42-1.5-4.81-3-7.23-4.53s-4.71-2.89-7.08-4.31c-1.78-1.08-3.6-2.1-5.37-3.2-1.55-.95-3-2-4.57-3-2-1.29-4.05-2.54-6.07-3.81-3.68-2.31-7.38-4.62-11.05-6.95-3.85-2.44-7.7-4.89-11.51-7.39a1.3,1.3,0,0,1-.44-1.14c1.17-3.33,2.4-6.64,3.65-9.95,2-5.39,4.09-10.78,6.14-16.17,2.82-7.41,5.67-14.82,8.46-22.25,1.3-3.44,2.53-6.92,3.75-10.39.59-1.69.92-1.82,2.39-.91,3,1.86,6,3.66,9,5.53s5.87,3.81,8.84,5.67c2.11,1.32,4.31,2.51,6.43,3.83s3.91,2.56,5.88,3.82a7.48,7.48,0,0,0,1.33.44V314.4c1.62,1.13,2.92,2,4.2,2.94.69.48,1.34,1,2,1.48a2.72,2.72,0,0,0,3.19-.05c1.23-.78,2.45-1.56,3.71-2.29a15.53,15.53,0,0,1,1.86-.77c.08.84.2,1.47.2,2.11,0,5.64,0,11.28-.12,16.92,0,1.33,1,1.51,1.71,2,2.69,1.71,5.43,3.33,8.16,5,2,1.23,2.7,3.4,3.67,5.35,1.45,3,2.85,6,4.3,8.91q2.87,5.83,5.77,11.66c.34.67.75,1.3,1.07,2a1.82,1.82,0,0,1,.08,1.41c-4.46-7.73-8.81-15.47-12.16-24a7.67,7.67,0,0,0-.75,1.16q-2.35,6.09-4.67,12.18c-.71,1.85-1.33,3.74-2.13,5.55a1.56,1.56,0,0,0,.72,2.11,31.42,31.42,0,0,0,3.57,1.67,2.92,2.92,0,0,1,.73.36,43.23,43.23,0,0,0,3.67,3.12c2.18,1.45,4.52,2.65,6.73,4.06,1.52,1,2.89,2.18,4.42,3.14.48.3,1.55.42,1.81.13.47-.52,1.6-.83,1.15-2a8.63,8.63,0,0,1-.34-1.44Zm-3.7,6.64c-1,.41-1.57.6-2.12.91-3.5,2-7,4-10.48,6-1.92,1.11-3.86,2.16-5.77,3.29-1.52.89-3,1.9-4.49,2.78-2.28,1.32-4.61,2.55-6.9,3.86-.88.51-2,1-.87,2.35.09.11-.07.43-.12.65a8.47,8.47,0,0,0-.36,1.61c0,2.37,0,4.74.08,7.1,0,.6.5,1.2.47,1.78-.1,1.67-.45,3.33-.52,5-.09,1.94.08,3.88,0,5.82s.42,3.61.19,5.54a80.44,80.44,0,0,0-.16,10.07c0,1.34.37,1.5,1.5.79,2-1.25,4-2.51,6-3.7,3-1.77,6-3.48,9-5.23l10.53-6.17a14.28,14.28,0,0,1,3-1.68,1.28,1.28,0,0,0,1.12-1.59c-.08-1.15-.17-2.31-.18-3.46,0-2.78,0-5.57,0-8.31l-2-.6c2.61-1,2.13-2.85,2.13-4.54,0-2.23,0-4.46-.08-6.69,0-1.19-.48-2.38-.45-3.56.05-2.15.38-4.29.48-6.44C217.82,387.34,217.75,385.6,217.75,383.46Zm-23.61-6.59c.67.35,1,.57,1.43.76a13.94,13.94,0,0,1,2.06,1c1.3.9,2.5,1.95,3.8,2.86,2.14,1.49,4.33,2.91,6.49,4.39a2.08,2.08,0,0,0,2.49.26c1.73-1,3.5-2,5.22-3.06.79-.48,1.51-1.09,2.27-1.65-1.86-1.26-3.51-2.4-5.19-3.49s-3.52-1.8-5-3.36a10.45,10.45,0,0,0-4.92-3.18c-2.13-.49-2.82-2.86-5.09-2.92-.43,1.67-1.8,3.33-.45,5.12ZM141.4,398.73a2.91,2.91,0,0,0,.2-.5c.08-3.55.21-7.1.18-10.64a2.87,2.87,0,0,0-1-2c-1.22-.93-2.64-1.6-3.95-2.43-2.91-1.83-5.8-3.7-8.86-5.65a8.85,8.85,0,0,0-.29,1.53c0,3.08.06,6.16,0,9.23a3.33,3.33,0,0,0,2,3.36c2.17,1.2,4.2,2.66,6.32,4C137.73,396.68,139.55,397.67,141.4,398.73ZM195,378.6c-.44.35-1,.59-1.23,1-1.08,2.46-2.09,5-3,7.47a1.35,1.35,0,0,0,.47,1.23c2.28,1.28,4.86,2.11,6.4,4.49.08.13.64.1.88,0,2.77-1.46,5.53-2.92,8.25-4.45.95-.54,1-1.36.21-1.92-1-.73-2.12-1.39-3.17-2.09-2.33-1.57-4.66-3.15-7-4.71C196.22,379.27,195.67,379,195,378.6Zm1.83,15.07c-1.52-1.25-3-2.39-4.41-3.66s-2.47-1.16-3.14.78c-.86,2.49-1.84,4.94-2.74,7.42a5.32,5.32,0,0,0-.17,1.14,3.91,3.91,0,0,0,1.16-.21c2.09-1.16,4.16-2.34,6.23-3.55C194.73,395,195.71,394.34,196.78,393.67Z" transform="translate(-73.28 -306.1)"/><path class="cls-3" d="M167.82,475.41l-.44-.63a1.83,1.83,0,0,1-3.18,0,3.48,3.48,0,0,0-2.58-1.75c-.31,0-.87-.4-.86-.61.05-2-1.72-2.11-2.81-2.33a10.85,10.85,0,0,1-5.23-3.14,16,16,0,0,0-2.95-2.08c-.65-.38-1.18-.64-.92-1.06-.09,0-.64.33-.95.17a12.7,12.7,0,0,1-2.56-1.74,9.57,9.57,0,0,1-1.26-1.8,5.5,5.5,0,0,1-4.23-1.91,5.53,5.53,0,0,0-2.16-1.36,2.57,2.57,0,0,1-1.83-2.1c-1.29.15-6-3.15-6.23-4.46-2.3-.32-4.44-.86-5.61-2.57-1.35-1-2.38-1.79-3.47-2.51-.67-.45-1.45-.76-2.14-1.18-1.35-.83-2.7-1.66-4-2.56-.3-.21-.66-.8-.56-1,.53-1.31-.32-.87-1-1a19.85,19.85,0,0,1-3.16-1c-.12,0-.13-.4-.18-.61,0,0,0-.07,0-.11-.22,0-.49,0-.65-.06-2-1.24-3.87-2.52-5.83-3.74a21,21,0,0,1-3.56-2.15,17.63,17.63,0,0,0-4.57-2.91,21.31,21.31,0,0,1-2.82-2.08c-.41-.29-.87-.51-1.3-.78-.19-.11-.36-.27-.55-.4l.14,0c-.25,0-.59.1-.75,0-1.45-1.08-2.85-2.23-4.3-3.31-.41-.3-1-.41-1.37-.71-2.21-1.62-4.39-3.27-6.6-4.89a3.45,3.45,0,0,0-.74-.29l-3.33-1.55,0-.71,3.72-2c0,.07,0,.15,0,.23.14-.87,2.11-1.9,3.77-2,.22-1.31,9.25-6.93,10.64-6.81a8,8,0,0,1,1.18-1.24c2-1.26,3.93-2.52,6-3.68A13.2,13.2,0,0,1,101,398c.06,0,.21.05.21,0,.81-2,2.91-2,4.46-2.87a2.64,2.64,0,0,1,2.07.35,38.74,38.74,0,0,1,3.37,2.38c2.15,1.54,4.32,3,6.43,4.64,1.3,1,1.07,3.61-.3,4.56a6.7,6.7,0,0,0-.83.77c-1.12,1.06-2.27,2-4,1.72a4.75,4.75,0,0,1-3.91,3.08c-.56.1-1.13,1.23-1.3,2-.11.5.49,1.16.82,1.85.93-.33,2-.23,2.53-1.52.17-.42,1.18-.51,1.48-.63.63-.71,1.09-1.26,1.59-1.78s1.22-1,1.82,0c0,0,.08.1.1.09,2.24-.82,2.5.7,2.93,2.31.48,1.81,2.29,2.43,3.59,3.51s3.15,1.12,3.9,2.83c.06.14.4.18.61.22,1.6.32,1.8.76,1.24,1.91.13-.06.63-.48,1-.39,1,.28,2.16.51,2.17,2a2.59,2.59,0,0,1,3.07,1.24c.36.55,1.15.82,1.76,1.19,1.56.95,3.15,1.85,4.69,2.83,1.75,1.12,3.42,2.36,5.2,3.43a14,14,0,0,0,2.48.88,9.76,9.76,0,0,1,.93.44c0-.05.12-.4.28-.43,1.52-.3,1.47-1.56,1.64-2.65a21.49,21.49,0,0,0,.19-2.27c.1-2,1.74-3,3.48-1.91,2.45,1.6,4.76,3.41,7.15,5.11a2.77,2.77,0,0,0,.88.3c1.23.28,2.55.43,3,2a.35.35,0,0,0,.16.2c1.47.81,3,1.51,4.41,2.45,1.86,1.27,4.12,2,5.4,4.1a1.47,1.47,0,0,0,.86.51,6.77,6.77,0,0,1,3.88,3.13,2,2,0,0,1-.21,2,38.94,38.94,0,0,1-4.11,2.52,2.09,2.09,0,0,0-.67.43,6.54,6.54,0,0,1-4.7,2.7,1.37,1.37,0,0,0-.94.59,3.44,3.44,0,0,1-3.45,2c-.32,1.62-1.87,1.84-3.09,2.35s-1.14,1.16-.76,2.11,1.05.75,1.7.28,1.13-.94,1.74-1.34c1.24-.81,2.48-1.63,3.78-2.34,1-.54,2.46-.62,3-1.41a4.87,4.87,0,0,1,2.7-1.75,14.46,14.46,0,0,0,2.84-1.16,26.74,26.74,0,0,0,2.29-2.12c.58-.48,1.46-.7,1.89-1.28,1.06-1.42,2.6-.86,3.84-.87.88,0,1.77,1,2.63,1.62.22.15.37.64.51.62,1.13-.15,1.54.78,2.26,1.31s2,.84,2.88,1.41a32.08,32.08,0,0,1,4.51,3.31c.21.2-.64,1.56-1,2.38,0,0-.1-.05-.1-.09a.3.3,0,0,1,0-.18s.07,0,.09,0a.31.31,0,0,1,.1.1c-.13.23-.21.55-.41.66-2,1.12-4,2.23-6.06,3.26-.39.2-1,0-1.8,0-.47.5-1.13,1.8-2.07,2.05-2.07.56-3.25,2.17-4.85,3.25a6.47,6.47,0,0,1-1.82.47c-.6,1.43-2.23,2.06-4,2.53a2,2,0,0,0-1.24.83c-.83,1.51-2,1.8-3.49.7a3.92,3.92,0,0,1-3.69,3.84Z" transform="translate(-73.28 -306.1)"/><path class="cls-3" d="M199.54,438.58l6.53-4,4.12-2.52c.4-.25.79-.76,1.16-.74,1.42.07,2.17-1.14,3.27-1.64,1.93-.87,3.7-2,5.91-1,.13.05.3.05.4.13a31.57,31.57,0,0,1,3.85,3.22,5.17,5.17,0,0,0,3.66,1.82,14.33,14.33,0,0,1,2.61.72,3,3,0,0,0-2.16-3c-1.11-.43-1.67-1-1.34-2.26-2.31.41-3.94-.68-5.39-2.16a.87.87,0,0,1-.22-.75,9.38,9.38,0,0,1,1.87-2.72,12.72,12.72,0,0,1,3.23-1.31c.26-.1.64-.21.73-.42.75-1.75,2.41-2.43,3.87-3.34,1.1-.69,2.37-1.18,3.14-2.28a3.9,3.9,0,0,0,.26-1.57,10.7,10.7,0,0,0-1.71.28,7.32,7.32,0,0,0-1.78.86c-1.05.71-2,1.57-3.09,2.25s-2,1.09-3.4,1.81a2.23,2.23,0,0,1-2.36,1.4c-1.23-.27-1.49-1.29-1.49-2.41q0-15.71,0-31.4c0-1.66.49-2.11,2.07-1.64a14,14,0,0,1,2.41,1.34c1,.57,2.09,1.09,3.1,1.7a23.64,23.64,0,0,1,1.94,1.39c-.17.36-.17.35-.17.35a25.56,25.56,0,0,1,3.75,1.73c3.91,2.57,7.75,5.25,11.61,7.91.12.08.05.44.06.6a6.88,6.88,0,0,1,1.28.44c1.57.94,3.11,1.92,4.65,2.91.31.2.55.51.86.71.62.43,1.26.82,1.9,1.22.16.1.39.13.5.26,1.69,2.26,4.54,2.75,6.65,4.38,1.32,1,2.76,1.89,4.17,2.8,1.57,1,1.58,2.57,0,3.54q-6.22,3.85-12.44,7.72c-3.94,2.46-7.87,5-11.83,7.4s-8.2,5-12.3,7.47-8.32,5.07-12.46,7.65c-1.79,1.11-3.49,2.4-5.3,3.48-2.38,1.41-4.79,2.79-7.28,4a4.1,4.1,0,0,1-3.79-.36,47.32,47.32,0,0,1-9.08-6.42c-.43-.38-1.16-.42-1.6-.79s-1-1-.94-1.46a2.6,2.6,0,0,1,1.09-1.59c1.42-.95,3-1.7,4.42-2.63s2.54-1.84,3.85-2.7A3.46,3.46,0,0,1,199.54,438.58Z" transform="translate(-73.28 -306.1)"/><path class="cls-3" d="M119.77,406.14c.92.52,1.75.91,2.51,1.41,2.11,1.39,4.18,2.83,6.27,4.24,3,2,6,4.1,9.1,6.11,2.08,1.37,4.21,2.66,6.31,4a25.43,25.43,0,0,0,2.83,1.85,12.7,12.7,0,0,0,2.9.5c-.11,2.19-.21,4.81-.43,7.43,0,.29-.73.73-1.12.73a3.31,3.31,0,0,1-1.7-.56c-3.9-2.53-7.75-5.12-11.65-7.65-3-2-6.13-3.85-9.15-5.84-1.83-1.21-3.58-2.53-5.34-3.84a1.4,1.4,0,0,1-.55-.92c-.12-2.17-.17-4.35-.22-6.52A4.48,4.48,0,0,1,119.77,406.14Z" transform="translate(-73.28 -306.1)"/><path class="cls-3" d="M113.68,390.55c.32-.7.38-1.23.65-1.38,2.08-1.18,4.14-2.4,6.32-3.37,1.95-.87,3,0,3,2.13,0,4.26,0,8.52,0,12.78,0,.54-.42,1.44-.79,1.53a2.07,2.07,0,0,1-1.8-.58c-.88-1.58-2.53-1.93-3.87-2.77-2.12-1.33-4.35-2.51-6.34-4a2.86,2.86,0,0,1-.46-2.55c.17-.63,1.13-1.1,1.84-1.46A4.58,4.58,0,0,1,113.68,390.55Z" transform="translate(-73.28 -306.1)"/><path class="cls-3" d="M170.53,432.46c-1.43-.74-2.59-1.24-3.63-1.91-1.53-1-2.93-2.16-4.46-3.13a2,2,0,0,1-1.09-1.95c.08-2.17.08-4.35.2-6.52,0-.5.27-1.29.61-1.42a2.17,2.17,0,0,1,1.59.41c1.93,1.23,3.84,2.51,5.71,3.84a2.3,2.3,0,0,1,1,1.38C170.57,426.13,170.53,429.1,170.53,432.46Z" transform="translate(-73.28 -306.1)"/><path class="cls-3" d="M206,349.76a14.08,14.08,0,0,1,1.94,6.29,59.16,59.16,0,0,0,.1,6.25c.31,2.51-1.05,3.75-2.95,4.77a6.32,6.32,0,0,1-1.61.83,3.31,3.31,0,0,1-2.12-.06c-.77-.48-1.69-1.15-1.22-2.41.68-1.82,1.29-3.66,2-5.47C203.34,356.66,204.61,353.37,206,349.76Z" transform="translate(-73.28 -306.1)"/><path class="cls-3" d="M180.53,438.76c-2.5-1.56-4.71-2.85-6.79-4.3a2.71,2.71,0,0,1-.65-1.91c-.07-2.68,0-5.37,0-8.42a15.18,15.18,0,0,1,2.05,1c1.57,1.09,3.09,2.24,4.61,3.39.31.24.77.6.77.91C180.55,432.37,180.53,435.32,180.53,438.76Z" transform="translate(-73.28 -306.1)"/><path class="cls-3" d="M180.54,424.69c-2.47-.07-3.62-1.93-5.31-2.84a4.12,4.12,0,0,1-2.22-4.46c.15-1.74.07-3.5.17-5.25.06-1.22.88-1.66,1.92-1,1.69,1.09,3.31,2.26,4.94,3.44a1.17,1.17,0,0,1,.48.81C180.55,418.47,180.54,421.53,180.54,424.69Z" transform="translate(-73.28 -306.1)"/><path class="cls-3" d="M219.68,378.92c-1.16-.68-2.34-1.33-3.48-2-1.69-1.06-3.36-2.17-5-3.26a3.14,3.14,0,0,1-.69-.48c-1.28-1.4-.42-5.5,1.3-6.3,2.13-1,2.06-.95,3.1,1.22,1.65,3.49,3.39,6.93,5.1,10.38Z" transform="translate(-73.28 -306.1)"/><path class="cls-3" d="M161.71,402.68c1.26.68,2.59,1.34,3.85,2.1s2.33,1.56,3.48,2.35c1.5,1,1.52,1.73,0,2.67-1.82,1.13-3.67,2.22-5.51,3.32-.91.54-1.79.19-1.81-.85C161.66,409.17,161.71,406.07,161.71,402.68Z" transform="translate(-73.28 -306.1)"/><path class="cls-3" d="M158.74,410.58a39.65,39.65,0,0,1-3.76-2.3,2.87,2.87,0,0,1-1.09-1.85c-.13-2.88-.08-5.76-.08-8.64,0-.15.16-.31.26-.5,1.42.89,2.8,1.72,4.14,2.63a1.29,1.29,0,0,1,.51.93C158.76,404,158.74,407.06,158.74,410.58Z" transform="translate(-73.28 -306.1)"/><path class="cls-3" d="M170.46,404.2c-1-.5-1.82-.82-2.55-1.28-1.77-1.14-3.52-2.32-5.22-3.54a2.42,2.42,0,0,1-1.06-1.36c-.14-1.39,0-2.81,0-4.42a25.84,25.84,0,0,1,2.64,1.27c1.84,1.1,3.64,2.27,5.43,3.45.33.22.75.59.77.92C170.5,400.78,170.46,402.33,170.46,404.2Z" transform="translate(-73.28 -306.1)"/><path class="cls-3" d="M153.85,418.78v-7.61c1.64,1.17,3.09,2.13,4.45,3.21a1.05,1.05,0,0,1-.08,1.81C156.88,417.08,155.47,417.83,153.85,418.78Z" transform="translate(-73.28 -306.1)"/><path class="cls-3" d="M173.09,400.67l5.58,3c-1.65,1.19-2.89,2.22-4.26,3-.94.55-1.27-.33-1.3-1.06C173,404.09,173.09,402.59,173.09,400.67Z" transform="translate(-73.28 -306.1)"/><path class="cls-3" d="M158.89,394,158.3,396l-1.87-1-1-.56c-1.87-1-2.34-2.83-1.07-4.49a1.41,1.41,0,0,1,1.33-.32,10.54,10.54,0,0,1,2.74,2.06C158.86,392.14,158.74,393.07,158.89,394Z" transform="translate(-73.28 -306.1)"/><path class="cls-3" d="M170.42,413.32v5.3c-1.41-1.06-2.62-1.92-3.72-2.9a1.79,1.79,0,0,1,.6-1.38A19.37,19.37,0,0,1,170.42,413.32Z" transform="translate(-73.28 -306.1)"/><path class="cls-3" d="M158.5,424.84l-3.79-2.62,3.79-2.2Z" transform="translate(-73.28 -306.1)"/><path class="cls-3" d="M180.43,407.15V411c-1.08-.12-2.68-1.31-2.69-1.93S179.17,407.29,180.43,407.15Z" transform="translate(-73.28 -306.1)"/><path class="cls-3" d="M210.52,359.39a23.14,23.14,0,0,1,1.32,2.87c.09.29-.45.78-.69,1.18-.39-.27-1.05-.51-1.09-.83a23.15,23.15,0,0,1-.06-3.12Z" transform="translate(-73.28 -306.1)"/><path class="cls-3" d="M170.71,410.62a5.66,5.66,0,0,0,1-1.61,9,9,0,0,0-.32-2.36l2.77,2.08-3.2,2Z" transform="translate(-73.28 -306.1)"/><path class="cls-3" d="M220.55,376.22l-1.49-2.94A2,2,0,0,1,220.55,376.22Z" transform="translate(-73.28 -306.1)"/><path class="cls-3" d="M221.05,375.46l.69,1.77-.62.25-.74-1.75Z" transform="translate(-73.28 -306.1)"/><path class="cls-3" d="M222.28,424.29c.31.51.63.82.6,1.08s-.43.47-.66.71c-.25-.28-.63-.53-.7-.84S221.9,424.74,222.28,424.29Z" transform="translate(-73.28 -306.1)"/><path class="cls-3" d="M113.64,441.69c-.36-.55-.71-.86-.72-1.17s.53-.69.67-.64a1.29,1.29,0,0,1,.74.76C114.39,440.85,114,441.17,113.64,441.69Z" transform="translate(-73.28 -306.1)"/><path class="cls-3" d="M168.8,476.31l-1.19.3c.07-.4.15-.8.22-1.2Z" transform="translate(-73.28 -306.1)"/><path class="cls-3" d="M227.59,434.05l-.1.18s-.1-.07-.09-.09a.48.48,0,0,1,.09-.19Z" transform="translate(-73.28 -306.1)"/><path class="cls-3" d="M207.82,418c0,1.51,0,2.67,0,3.84,0,1.7,0,3.41-.09,5.11a2,2,0,0,1-.82,1.42c-2.6,1.61-5.24,3.13-7.88,4.67a12.92,12.92,0,0,1-1.23.49c0-3.22-.09-6.23.08-9.22,0-.64.93-1.38,1.6-1.81,2.05-1.32,4.18-2.54,6.3-3.75A13.66,13.66,0,0,1,207.82,418Z" transform="translate(-73.28 -306.1)"/><path class="cls-3" d="M207.93,391.26c0,2.26-.08,4.53,0,6.79.08,1.72-1.27,2.21-2.3,2.86-2.15,1.33-4.42,2.49-6.63,3.73-.89.5-1.25.1-1.25-.77,0-2.18-.06-4.36,0-6.53,0-.5.55-1,.93-1.44a4.67,4.67,0,0,1,1.1-.81l7.54-4.24Z" transform="translate(-73.28 -306.1)"/><path class="cls-3" d="M187.89,424.72c0-2.83,0-5.67.05-8.5a2.47,2.47,0,0,1,1.06-1.6,51.73,51.73,0,0,1,4.69-2.84c1.35-.73,1.79-.46,1.82,1.05.05,2.42.05,4.83.05,7.25,0,.27-.05.67-.22.78-2.3,1.47-4.63,2.89-7,4.33Z" transform="translate(-73.28 -306.1)"/><path class="cls-3" d="M195.38,425.09c0,3.39.05,6.35,0,9.3a2,2,0,0,1-1.38,1.75c-1.89.9-3.68,2-5.6,3.1a2.73,2.73,0,0,1-.34-.83c-.05-2.79-.09-5.58-.08-8.36a1.33,1.33,0,0,1,.43-1C190.61,427.75,192.88,426.49,195.38,425.09Z" transform="translate(-73.28 -306.1)"/><path class="cls-3" d="M210.18,412.11c0-3.36,0-6.47,0-9.57a1.71,1.71,0,0,1,.8-1.06c1.22-.78,2.47-1.51,3.74-2.21s1.82-.45,1.82,1c0,2.27,0,4.53-.09,6.79a2.63,2.63,0,0,1-.85,1.74c-1.36,1.06-2.83,2-4.28,2.92A4.66,4.66,0,0,1,210.18,412.11Z" transform="translate(-73.28 -306.1)"/><path class="cls-3" d="M210.11,397.46v-7.17a1.9,1.9,0,0,1,1.41-1.87c1.15-.49,2.17-1.27,3.29-1.86s1.7-.36,1.71,1.06c0,1.61-.06,3.22,0,4.82a3,3,0,0,1-1.29,2.78C214.05,396.08,211.14,397.47,210.11,397.46Z" transform="translate(-73.28 -306.1)"/><path class="cls-3" d="M207.72,412.82c-1-.5-1.79-.81-2.5-1.24-1.4-.86-2.76-1.79-4.14-2.69-.59-.38-.85-1-.21-1.35,2.12-1.2,4.32-2.27,6.49-3.38.06,0,.18,0,.36.1Z" transform="translate(-73.28 -306.1)"/><path class="cls-3" d="M197.82,419.41v-8a9.27,9.27,0,0,1,1.45.5c1.58.91,3.14,1.86,4.7,2.81.59.35.88.87.13,1.29C202.11,417.17,200.08,418.21,197.82,419.41Z" transform="translate(-73.28 -306.1)"/><path class="cls-3" d="M195.3,405.51,189,402.1a13.57,13.57,0,0,1,6.29-3.8Z" transform="translate(-73.28 -306.1)"/><path class="cls-3" d="M210.16,426.37v-7.71a14.49,14.49,0,0,1,1.8.79,40.93,40.93,0,0,1,3.62,2.37,1.45,1.45,0,0,1,.07,1.34C214,424.23,212.23,425.19,210.16,426.37Z" transform="translate(-73.28 -306.1)"/><path class="cls-3" d="M216.56,418.2c-1.34-.74-2.29-1.21-3.17-1.77-.44-.28-1-.73-1-1.14s.56-.86,1-1.11a8.83,8.83,0,0,1,2.19-.94c.29-.07,1,.25,1,.42C216.6,415.14,216.56,416.62,216.56,418.2Z" transform="translate(-73.28 -306.1)"/><path class="cls-3" d="M188,411.39v-6l4.64,3Z" transform="translate(-73.28 -306.1)"/><path class="cls-3" d="M208,380.33c0,.76,0,1.52,0,2.27-.05,1.11-.62,1.43-1.54.83-2.23-1.46-4.44-2.95-6.66-4.42-.78-.51-.49-1,.07-1.38,1.56-.95,3.12-1.91,4.76-2.7,1-.5,3,1,3.16,2.29C207.91,378.25,207.93,379.29,208,380.33Z" transform="translate(-73.28 -306.1)"/><path class="cls-3" d="M215.14,381.62l-5,3v-5.93C212.18,378.84,213.49,380.1,215.14,381.62Z" transform="translate(-73.28 -306.1)"/><path class="cls-3" d="M129.09,387.13c0-.91,0-1.48,0-2,0-1,.65-1.3,1.5-1.35a4.19,4.19,0,0,0,1.07,0,2.55,2.55,0,0,1,3.49,1.11c.12.21.53.23.81.33a15.87,15.87,0,0,1,2.85,1.15A2.24,2.24,0,0,1,140,389a17.06,17.06,0,0,0-.07,3.51c-.06,1.57-1,2.18-2.35,1.46-1.61-.83-3.14-1.81-4.71-2.73a6.23,6.23,0,0,0-1.41-.88C129.54,389.89,128.57,388.85,129.09,387.13Z" transform="translate(-73.28 -306.1)"/><path class="cls-3" d="M131.43,383.63c-.37.26-.62.54-.75.49a1.08,1.08,0,0,1-.55-.58c0-.07.32-.46.48-.44S131.06,383.37,131.43,383.63Z" transform="translate(-73.28 -306.1)"/><path class="cls-3" d="M198,382.22c2.16,1.42,4.15,2.75,6.15,4,1,.64.86,1.41,0,1.91-1.72,1.06-3.52,2-5.3,2.9a3.49,3.49,0,0,1-.89.15Z" transform="translate(-73.28 -306.1)"/><path class="cls-3" d="M195.13,380.58c.89,2.67.15,5.43.46,8.16-2.58-.15-3.53-1.37-2.86-3.45.52-1.63,1.17-3.21,1.76-4.82Z" transform="translate(-73.28 -306.1)"/><path class="cls-3" d="M189.71,392.61c.44-.38,1.15-1.18,1.29-1.1a31.59,31.59,0,0,1,2.81,2.23,7.81,7.81,0,0,1-2.38,1.09C190.23,395,189.94,394,189.71,392.61Z" transform="translate(-73.28 -306.1)"/></g></g></svg>